#!OML:ASF H:\Terrain\Patient Classification 1\PLAYGROUND\JustinFriday\JustinFriday.ASF
:FULLY-SPECIFIED
:DEGREES
1023
root 12.7728 17.1685 23.866 176.3 -23.2907 -175.359
lowerback 11.3807 0.662764 -1.28797
upperback 0.961873 0.666539 0.696284
thorax -5.40141 0.326635 1.35359
lowerneck 9.63176 -5.83816 -5.98673
upperneck -41.405 -10.6442 15.0909
head -14.6305 -7.48937 9.44378
rclavicle 3.32964e-015 1.43125e-014
rhumerus 2.8305 4.18705 -42.0015
rradius 79.0235
rwrist 13.6045
rhand -19.025 -26.4613
rfingers 7.12502
rthumb 7.28102 -416.316
lclavicle 3.32964e-015 1.43125e-014
lhumerus -14.6816 -11.5237 78.0756
lradius 49.7563
lwrist -16.8348
lhand -22.7592 -3.59994
lfingers 7.12502
lthumb 3.67568 26.3481
rfemur -27.8435 -12.6705 33.062
rtibia 43.3543
rfoot -19.4959 -18.1678
rtoes 24.2956
lfemur 5.73632 7.5654 -13.9349
ltibia 37.6658
lfoot -25.3626 -14.8282
ltoes -16.2333
1024
root 12.7502 17.1554 23.8092 175.869 -22.8159 -175.177
lowerback 10.9871 0.488884 -1.06638
upperback 1.06724 0.473414 0.874689
thorax -5.06413 0.224268 1.447
lowerneck 8.41997 -5.50683 -8.67223
upperneck -39.4654 -9.60139 17.1347
head -13.2084 -6.94154 10.1744
rclavicle 3.4191e-014 -1.07344e-014
rhumerus 5.47219 4.32128 -40.356
rradius 79.9598
rwrist 13.2636
rhand -19.3889 -26.7142
rfingers 7.12502
rthumb 6.9297 -416.581
lclavicle 3.4191e-014 -1.07344e-014
lhumerus -12.074 -12.4455 77.4025
lradius 51.8246
lwrist -17.476
lhand -22.8657 -4.16712
lfingers 7.12502
lthumb 3.57283 25.7827
rfemur -27.3739 -12.7349 33.1914
rtibia 43.7525
rfoot -19.6722 -17.8643
rtoes 23.7204
lfemur 6.27405 7.54657 -13.8089
ltibia 37.8525
lfoot -25.0446 -14.5504
ltoes -16.56
1025
root 12.7295 17.1446 23.7529 175.532 -22.4246 -175.132
lowerback 10.8132 0.333049 -0.903584
upperback 1.05313 0.29208 0.944347
thorax -4.97523 0.132227 1.45537
lowerneck 8.96499 -5.28882 -7.81454
upperneck -39.9648 -9.52207 16.2112
head -13.7257 -6.89416 9.80242
rclavicle -1.3418e-014 -1.15295e-014
rhumerus 8.03344 4.44285 -38.7684
rradius 80.711
rwrist 12.4122
rhand -20.0906 -27.2163
rfingers 7.12502
rthumb 6.2523 -417.104
lclavicle -1.3418e-014 -1.15295e-014
lhumerus -9.4693 -13.608 76.4929
lradius 53.8545
lwrist -17.212
lhand -23.2361 -4.88908
lfingers 7.12502
lthumb 3.2151 25.0664
rfemur -26.9632 -12.8475 33.2031
rtibia 44.1368
rfoot -19.8822 -17.6255
rtoes 23.2227
lfemur 6.75059 7.40975 -13.8703
ltibia 38.0739
lfoot -24.9565 -13.9285
ltoes -17.2658
1026
root 12.7077 17.1265 23.7022 175.321 -21.9021 -175.424
lowerback 10.7913 0.339644 -0.986596
upperback 0.966407 0.292284 0.864811
thorax -5.05393 0.136541 1.41902
lowerneck 9.31951 -5.16471 -7.22623
upperneck -39.9595 -9.42248 15.4883
head -13.9288 -6.80972 9.43546
rclavicle -7.4743e-014 1.74931e-014
rhumerus 10.5825 4.14366 -37.2482
rradius 81.0454
rwrist 12.3621
rhand -20.5039 -27.3418
rfingers 7.12502
rthumb 5.85332 -417.241
lclavicle -7.4743e-014 1.74931e-014
lhumerus -6.72036 -14.8763 75.4695
lradius 55.6861
lwrist -17.0407
lhand -23.9229 -6.0319
lfingers 7.12502
lthumb 2.55184 23.9326
rfemur -26.6019 -12.7475 32.8674
rtibia 44.5798
rfoot -20.1503 -17.3584
rtoes 23.4938
lfemur 7.2696 7.42264 -14.3147
ltibia 38.2608
lfoot -24.9258 -13.0007
ltoes -18.4394
1027
root 12.6865 17.1023 23.648 174.979 -21.3009 -175.548
lowerback 10.6955 0.368962 -1.03368
upperback 0.943923 0.330013 0.908452
thorax -5.02582 0.157097 1.48557
lowerneck 9.45904 -5.03077 -7.3214
upperneck -39.5664 -9.16661 15.3643
head -13.8218 -6.64274 9.32594
rclavicle -4.06018e-014 -8.74653e-015
rhumerus 13.2732 3.60472 -35.7595
rradius 81.0997
rwrist 12.833
rhand -21.2737 -26.9907
rfingers 7.12502
rthumb 5.11004 -416.909
lclavicle -4.06018e-014 -8.74653e-015
lhumerus -3.85702 -15.9762 74.4903
lradius 57.676
lwrist -16.8599
lhand -24.5903 -5.26206
lfingers 7.12502
lthumb 1.90724 24.7092
rfemur -26.1247 -12.4465 32.6892
rtibia 45.0072
rfoot -20.3671 -17.2376
rtoes 23.5926
lfemur 7.86466 7.51055 -14.5591
ltibia 38.4641
lfoot -24.8473 -12.1115
ltoes -19.7497
1028
root 12.6641 17.0803 23.5878 174.522 -20.8231 -175.295
lowerback 10.6076 0.23904 -0.724237
upperback 0.876784 0.204641 1.0768
thorax -5.04221 0.0912986 1.5055
lowerneck 9.07949 -4.86829 -8.40358
upperneck -38.5092 -8.66803 16.1619
head -13.1941 -6.36271 9.58354
rclavicle 4.24157e-014 -1.59028e-015
rhumerus 15.9812 3.20508 -34.3054
rradius 81.2418
rwrist 12.9563
rhand -21.8896 -26.7363
rfingers 7.12502
rthumb 4.51541 -416.668
lclavicle 4.24157e-014 -1.59028e-015
lhumerus -1.01906 -16.4305 73.4189
lradius 59.5554
lwrist -16.9519
lhand -24.8888 -5.37841
lfingers 7.12502
lthumb 1.61899 24.5952
rfemur -25.6485 -12.3476 32.8951
rtibia 45.4083
rfoot -20.4892 -17.1802
rtoes 23.0631
lfemur 8.42287 7.46262 -14.3907
ltibia 38.6855
lfoot -24.7334 -11.4168
ltoes -20.7279
1029
root 12.6397 17.06 23.5257 174.081 -20.3655 -174.72
lowerback 10.5997 0.0621101 0.0111847
upperback 0.654543 0.0723287 1.2387
thorax -5.2656 0.0153547 1.28017
lowerneck 8.72166 -4.77192 -9.29993
upperneck -37.3696 -8.26045 16.8668
head -12.5677 -6.12568 9.77387
rclavicle -1.14674e-013 9.14409e-015
rhumerus 18.5028 2.85047 -32.9259
rradius 81.4087
rwrist 12.8777
rhand -21.8893 -26.6588
rfingers 7.12502
rthumb 4.51566 -416.591
lclavicle -1.14674e-013 9.14409e-015
lhumerus 1.70767 -17.0598 72.0287
lradius 61.5011
lwrist -16.9265
lhand -24.5089 -5.87175
lfingers 7.12502
lthumb 1.98587 24.0988
rfemur -25.298 -12.475 33.4769
rtibia 45.8296
rfoot -20.7047 -16.9847
rtoes 22.2703
lfemur 8.89334 7.44419 -13.8345
ltibia 38.8693
lfoot -24.6051 -10.9991
ltoes -20.4492
1030
root 12.6168 17.0407 23.4628 173.754 -19.7764 -174.493
lowerback 10.7187 0.100256 0.440888
upperback 0.466737 0.182563 1.21263
thorax -5.53033 0.0621207 0.994941
lowerneck 8.65034 -4.7777 -9.03067
upperneck -36.965 -8.17989 16.7101
head -12.4188 -6.08555 9.58558
rclavicle 2.14687e-014 1.23246e-014
rhumerus 20.7072 2.07395 -31.6246
rradius 81.3671
rwrist 12.8373
rhand -21.9758 -26.5427
rfingers 7.12502
rthumb 4.43214 -416.476
lclavicle 2.14687e-014 1.23246e-014
lhumerus 4.72382 -18.1545 70.3718
lradius 63.4688
lwrist -16.6307
lhand -24.5686 -6.01854
lfingers 7.12502
lthumb 1.92818 23.9525
rfemur -24.9355 -12.4212 33.7265
rtibia 46.3462
rfoot -20.9973 -16.7858
rtoes 21.4453
lfemur 9.44057 7.50586 -13.6572
ltibia 38.935
lfoot -24.4892 -10.462
ltoes -19.9125
1031
root 12.5954 17.0192 23.4024 173.85 -19.2181 -175.178
lowerback 10.6752 0.267088 -0.0578648
upperback 0.3507 0.3417 0.968694
thorax -5.63174 0.155437 0.996359
lowerneck 8.68917 -4.74691 -8.38709
upperneck -37.0174 -8.16518 16.2084
head -12.5297 -6.09242 9.28509
rclavicle 7.2252e-014 -1.19271e-015
rhumerus 22.8432 1.01742 -30.3145
rradius 81.213
rwrist 12.5441
rhand -22.5965 -26.65
rfingers 7.12502
rthumb 3.83275 -416.595
lclavicle 7.2252e-014 -1.19271e-015
lhumerus 8.03521 -18.8469 68.8082
lradius 65.3342
lwrist -16.7418
lhand -24.6699 -6.08378
lfingers 7.12502
lthumb 1.83038 23.8881
rfemur -24.8088 -12.2409 33.0485
rtibia 46.9866
rfoot -21.2817 -16.5128
rtoes 21.3265
lfemur 9.91963 7.56988 -14.5355
ltibia 38.8655
lfoot -24.2972 -9.86111
ltoes -20.0428
1032
root 12.5701 16.998 23.3402 174.275 -18.8313 -176.132
lowerback 10.2701 0.206222 -0.842104
upperback 0.17137 0.173533 0.827467
thorax -5.59187 0.0984456 1.31599
lowerneck 9.12345 -4.52355 -7.93541
upperneck -37.2906 -8.02192 15.4375
head -12.8548 -5.97883 8.97254
rclavicle -6.98293e-014 -3.18055e-015
rhumerus 25.7102 0.279275 -29.171
rradius 80.7967
rwrist 12.5281
rhand -23.1625 -26.9584
rfingers 7.12502
rthumb 3.28619 -416.913
lclavicle -6.98293e-014 -3.18055e-015
lhumerus 11.1597 -18.6777 67.4283
lradius 67.0801
lwrist -17.1409
lhand -24.863 -6.10703
lfingers 7.12502
lthumb 1.64392 23.8664
rfemur -25.0431 -12.3397 32.1227
rtibia 47.6984
rfoot -21.4652 -16.165
rtoes 20.9203
lfemur 10.1998 7.57794 -15.7342
ltibia 38.6975
lfoot -24.0838 -9.46059
ltoes -20.2108
1033
root 12.5449 16.9741 23.27 174.41 -18.4326 -176.532
lowerback 9.8507 -0.0972478 -1.20041
upperback 0.118846 -0.253935 1.03835
thorax -5.39639 -0.0994948 1.79919
lowerneck 9.29479 -4.19834 -7.89173
upperneck -37.5129 -7.84385 14.666
head -13.0837 -5.80905 8.69707
rclavicle -2.79834e-014 2.0276e-014
rhumerus 29.5705 -0.230206 -28.366
rradius 79.9156
rwrist 12.8206
rhand -23.533 -27.0323
rfingers 7.12502
rthumb 2.9284 -416.992
lclavicle -2.79834e-014 2.0276e-014
lhumerus 14.0508 -17.8685 66.0327
lradius 68.7885
lwrist -17.1008
lhand -25.5095 -6.34253
lfingers 7.12502
lthumb 1.01948 23.6348
rfemur -25.1052 -12.3413 31.7622
rtibia 48.38
rfoot -21.5438 -16.1835
rtoes 19.8239
lfemur 10.6538 7.57238 -16.2671
ltibia 38.4903
lfoot -23.9735 -9.18752
ltoes -20.2192
